<svg xmlns="http://www.w3.org/2000/svg" width="500" height="640" viewBox="0 0 500 640">
  <path d="M 462.5,415.3 L 455.8,419.4 L 449.0,399.5 L 439.3,388.8 L 427.7,400.4 L 359.3,399.7 L 359.8,420.8 L 380.3,424.3 L 379.1,437.3 L 372.1,433.8 L 352.4,439.4 L 352.2,463.9 L 367.7,476.3 L 373.2,495.7 L 372.4,510.3 L 356.6,603.1 L 339.1,585.1 L 328.6,584.3 L 351.2,549.9 L 324.4,534.0 L 303.3,536.9 L 290.6,531.1 L 271.3,540.0 L 245.2,535.8 L 224.5,500.3 L 208.3,491.6 L 197.1,475.6 L 173.8,459.6 L 164.4,462.8 L 149.4,454.8 L 132.2,443.6 L 122.2,449.0 L 92.5,444.3 L 83.9,429.7 L 77.4,430.3 L 42.3,411.0 L 37.5,400.5 L 50.6,397.9 L 49.1,381.0 L 57.3,368.7 L 74.7,366.4 L 89.5,345.2 L 102.9,327.4 L 90.0,319.4 L 96.6,299.8 L 88.7,268.8 L 96.2,259.9 L 90.7,231.3 L 76.4,213.3 L 80.9,196.8 L 92.2,199.3 L 98.9,189.2 L 90.7,169.3 L 95.0,164.3 L 113.1,165.4 L 139.4,141.8 L 153.9,138.2 L 154.2,127.0 L 160.7,98.4 L 180.8,82.7 L 202.9,82.1 L 205.7,75.0 L 233.1,77.9 L 260.7,60.8 L 274.4,53.2 L 291.4,36.9 L 303.8,39.0 L 313.0,47.9 L 306.2,59.3 L 283.7,64.9 L 274.8,81.9 L 261.2,91.6 L 251.0,104.1 L 246.7,128.3 L 237.0,148.1 L 255.1,150.3 L 259.6,165.9 L 267.3,173.3 L 270.1,186.9 L 265.9,199.5 L 267.2,206.5 L 275.8,209.3 L 284.1,221.1 L 329.2,217.9 L 349.6,222.2 L 374.3,251.3 L 388.5,247.7 L 413.8,249.5 L 433.7,245.6 L 446.1,251.5 L 439.8,269.7 L 432.0,281.0 L 429.3,305.3 L 436.3,327.8 L 446.3,337.8 L 447.5,345.4 L 429.7,362.3 L 442.4,369.7 L 451.8,381.5 L 462.5,415.3 Z" fill="#2f6b33" stroke="none"/>
  <path d="M 335.4,285.1 L 352.9,279.1 L 370.4,272.3 L 388.0,265.5 L 405.5,259.1 L 423.0,254.0 L 433.6,250.3 L 440.0,248.6 L 446.1,251.5 L 439.8,269.7 L 432.0,281.0 L 429.3,305.3 L 436.3,327.8 L 446.3,337.8 L 447.5,345.4 L 429.7,362.3 L 442.4,369.7 L 412.5,368.0 L 381.0,362.9 L 352.9,356.2 L 331.9,351.1 L 314.7,346.0 L 314.7,322.4 L 314.7,291.9 L 335.4,285.1 Z" fill="#F6B53E" stroke="none"/>
</svg>