<svg xmlns="http://www.w3.org/2000/svg" viewBox="0 0 104 104" width="104" height="104" role="img" aria-label="Objetivos de Desarrollo Sostenible / Sustainable Development Goals"><path d="M52.52,2.00 A50,50 0 0 1 69.57,5.19 L61.49,26.72 A27,27 0 0 0 52.28,25.00 Z" fill="#E5243B"/><path d="M70.55,5.57 A50,50 0 0 1 85.30,14.70 L69.98,31.86 A27,27 0 0 0 62.02,26.93 Z" fill="#DDA63A"/><path d="M86.07,15.40 A50,50 0 0 1 96.52,29.25 L76.04,39.71 A27,27 0 0 0 70.40,32.24 Z" fill="#4C9F38"/><path d="M96.99,30.18 A50,50 0 0 1 101.74,46.87 L78.86,49.23 A27,27 0 0 0 76.29,40.22 Z" fill="#C5192D"/><path d="M101.83,47.91 A50,50 0 0 1 100.23,65.18 L78.05,59.12 A27,27 0 0 0 78.91,49.79 Z" fill="#FF3A21"/><path d="M99.95,66.19 A50,50 0 0 1 92.21,81.71 L73.72,68.04 A27,27 0 0 0 77.89,59.66 Z" fill="#26BDE2"/><path d="M91.58,82.55 A50,50 0 0 1 78.77,94.23 L66.45,74.81 A27,27 0 0 0 73.37,68.50 Z" fill="#FCC30B"/><path d="M77.88,94.78 A50,50 0 0 1 61.70,101.05 L57.24,78.49 A27,27 0 0 0 65.97,75.10 Z" fill="#A21942"/><path d="M60.67,101.24 A50,50 0 0 1 43.33,101.24 L47.32,78.59 A27,27 0 0 0 56.68,78.59 Z" fill="#FD6925"/><path d="M42.30,101.05 A50,50 0 0 1 26.12,94.78 L38.03,75.10 A27,27 0 0 0 46.76,78.49 Z" fill="#DD1367"/><path d="M25.23,94.23 A50,50 0 0 1 12.42,82.55 L30.63,68.50 A27,27 0 0 0 37.55,74.81 Z" fill="#FD9D24"/><path d="M11.79,81.71 A50,50 0 0 1 4.05,66.19 L26.11,59.66 A27,27 0 0 0 30.28,68.04 Z" fill="#BF8B2E"/><path d="M3.77,65.18 A50,50 0 0 1 2.17,47.91 L25.09,49.79 A27,27 0 0 0 25.95,59.12 Z" fill="#3F7E44"/><path d="M2.26,46.87 A50,50 0 0 1 7.01,30.18 L27.71,40.22 A27,27 0 0 0 25.14,49.23 Z" fill="#0A97D9"/><path d="M7.48,29.25 A50,50 0 0 1 17.93,15.40 L33.60,32.24 A27,27 0 0 0 27.96,39.71 Z" fill="#56C02B"/><path d="M18.70,14.70 A50,50 0 0 1 33.45,5.57 L41.98,26.93 A27,27 0 0 0 34.02,31.86 Z" fill="#00689D"/><path d="M34.43,5.19 A50,50 0 0 1 51.48,2.00 L51.72,25.00 A27,27 0 0 0 42.51,26.72 Z" fill="#19486A"/></svg>